# xmcd
#
# Track frame offsets:
#	150
#	16350
#	33742
#	49157
#	61055
#	76340
#	92392
#	121475
#	134952
#	153402
#	171252
#	187927
#	205847
#	227622
#	246570
#	263767
#
# Disc length: 3732 seconds
#
# Revision: 4
# Processed by: cddbd v1.5.2PL0 Copyright (c) Steve Scherf et al.
# Submitted via: audiograbber 1.83.01
#
DISCID=da0e9210
DTITLE=Various Artist - Get Out And Rock!
DYEAR=2004
DGENRE=Rock
TTITLE0=The Offspring - Race Against Myself
TTITLE1=Modest Mouse - Bury Me With It
TTITLE2=Lostprophets - Burn, Burn
TTITLE3=Franz Ferdinand - Cheating On You
TTITLE4=Hazen Street - Fool The World
TTITLE5=Killradio - Do You Know (Knife In Your Back)
TTITLE6=Incubus - Sick Sad Little World
TTITLE7=Northern State - Girl For All Seasons
TTITLE8=Future Leaders Of The World - Let Me Out
TTITLE9=X-Ecutioners - (Even) More Human Than Human
TTITLE10=Midtown - Give It Up
TTITLE11=Val Emmich - Privacy Attracks A Crowd
TTITLE12=Los Lonely Boys - Crazy Dream
TTITLE13=Switchfoot - Dare You To Move
TTITLE14=Lamb Of God - Laid To Rest (Pre-Production Demo)
TTITLE15=Coheed And Cambria - A Favor House Atlantic
EXTD=\n\n
EXTT0=
EXTT1=
EXTT2=
EXTT3=
EXTT4=
EXTT5=
EXTT6=
EXTT7=
EXTT8=
EXTT9=
EXTT10=
EXTT11=
EXTT12=
EXTT13=
EXTT14=
EXTT15=
PLAYORDER=
